<svg width="20" height="23" viewBox="0 0 20 23" fill="none" xmlns="http://www.w3.org/2000/svg">
<path fill-rule="evenodd" clip-rule="evenodd" d="M7.6466 5.17217C7.36306 5.17217 7.13354 4.93339 7.13354 4.65484C7.13354 4.37629 7.36306 4.13753 7.6466 4.13753C7.94361 4.13753 8.17313 4.37629 8.17313 4.65484C8.17313 4.93339 7.94361 5.17217 7.6466 5.17217ZM13.3439 5.17217C13.0469 5.17217 12.8174 4.93339 12.8174 4.65484C12.8174 4.37629 13.0469 4.13753 13.3439 4.13753C13.6274 4.13753 13.8569 4.37629 13.8569 4.65484C13.8569 4.93339 13.6274 5.17217 13.3439 5.17217ZM2.3813 7.61293C1.61173 7.61293 0.990723 8.22316 0.990723 8.9659V14.6698C0.990723 15.426 1.61173 16.0362 2.3813 16.0362C3.15079 16.0362 3.75834 15.426 3.75834 14.6698V8.9659C3.75834 8.22316 3.13734 7.61293 2.3813 7.61293ZM16.6921 7.86492H4.29839V16.6995C4.29839 17.5086 4.95996 18.1586 5.78348 18.1586H6.78251L6.79603 21.1698C6.79603 21.9259 7.41709 22.5362 8.17313 22.5362C8.94264 22.5362 9.56369 21.9259 9.56369 21.1698V18.1586H11.4268V21.1698C11.4268 21.9259 12.0478 22.5362 12.8174 22.5362C13.5869 22.5362 14.208 21.9259 14.208 21.1698V18.1586H15.2205C16.0306 18.1586 16.6921 17.5086 16.6921 16.6995V7.86492ZM13.5599 2.49263L14.5185 0.754861C14.5725 0.662112 14.5455 0.542656 14.451 0.489668C14.3564 0.449732 14.2349 0.476314 14.181 0.569213L13.2089 2.32019C12.3853 1.96195 11.4673 1.7631 10.4952 1.7631C9.52319 1.7631 8.60511 1.96195 7.78159 2.32019L6.80954 0.569213C6.75553 0.476314 6.63401 0.449732 6.53952 0.489668C6.44498 0.542656 6.418 0.662112 6.47203 0.754861L7.43055 2.49263C5.52699 3.44775 4.24442 5.27828 4.24442 7.38734H16.7326C16.7326 5.27828 15.45 3.44775 13.5599 2.49263ZM19.9998 8.9659C19.9998 8.20981 19.3787 7.61293 18.6092 7.61293C17.8532 7.61293 17.2321 8.20981 17.2321 8.9659V14.6698C17.2321 15.426 17.8532 16.0362 18.6092 16.0362C19.3787 16.0362 19.9998 15.426 19.9998 14.6698V8.9659Z" fill="white"/>
</svg>
