<svg width="18" height="14" viewBox="0 0 18 14" fill="none" xmlns="http://www.w3.org/2000/svg">
<path fill-rule="evenodd" clip-rule="evenodd" d="M17.1731 2.97198C17.1731 2.69389 17.0665 2.41563 16.8746 2.21542L15.4247 0.702325C15.2328 0.501949 14.9663 0.390775 14.6997 0.390775C14.4332 0.390775 14.1667 0.501949 13.9747 0.702325L6.98106 8.01224L3.84667 4.7299C3.65477 4.52969 3.38824 4.41835 3.12171 4.41835C2.85516 4.41835 2.58862 4.52969 2.39672 4.7299L0.946816 6.24317C0.754897 6.44338 0.648326 6.72146 0.648326 6.99973C0.648326 7.27781 0.754897 7.55591 0.946816 7.75628L4.80617 11.7839L6.25608 13.2971C6.448 13.4973 6.71453 13.6087 6.98106 13.6087C7.2476 13.6087 7.51407 13.4973 7.70597 13.2971L9.15594 11.7839L16.8746 3.72853C17.0665 3.52834 17.1731 3.25024 17.1731 2.97198Z" fill="white"/>
</svg>
