<svg width="37" height="18" viewBox="0 0 37 18" fill="none" xmlns="http://www.w3.org/2000/svg">
<path d="M7.2998 15H5.66504V4.16309L2.38672 5.36719V3.89062L7.04492 2.1416H7.2998V15Z" fill="#373737"/>
<path d="M16.6787 15.8955H15L20.0361 2H21.7148L16.6787 15.8955Z" fill="#373737"/>
<path d="M27.8105 8.58398L28.4609 2.20312H35.0176V3.70605H29.8408L29.4541 7.19531C30.0811 6.82617 30.793 6.6416 31.5898 6.6416C32.7559 6.6416 33.6816 7.02832 34.3672 7.80176C35.0527 8.56934 35.3955 9.60938 35.3955 10.9219C35.3955 12.2402 35.0381 13.2803 34.3232 14.042C33.6143 14.7979 32.6211 15.1758 31.3438 15.1758C30.2129 15.1758 29.29 14.8623 28.5752 14.2354C27.8604 13.6084 27.4531 12.7412 27.3535 11.6338H28.8916C28.9912 12.3662 29.252 12.9199 29.6738 13.2949C30.0957 13.6641 30.6523 13.8486 31.3438 13.8486C32.0996 13.8486 32.6914 13.5908 33.1191 13.0752C33.5527 12.5596 33.7695 11.8477 33.7695 10.9395C33.7695 10.084 33.5352 9.39844 33.0664 8.88281C32.6035 8.36133 31.9854 8.10059 31.2119 8.10059C30.5029 8.10059 29.9463 8.25586 29.542 8.56641L29.1113 8.91797L27.8105 8.58398Z" fill="#373737"/>
</svg>
